<?xml version="1.0" standalone="no"?>
<!DOCTYPE svg PUBLIC "-//W3C//DTD SVG 20010904//EN"
 "http://www.w3.org/TR/2001/REC-SVG-20010904/DTD/svg10.dtd">
<svg version="1.0" xmlns="http://www.w3.org/2000/svg"
 width="1024.000000pt" height="1024.000000pt" viewBox="0 0 1024.000000 1024.000000"
 preserveAspectRatio="xMidYMid meet">

<g transform="translate(0.000000,1024.000000) scale(0.100000,-0.100000)"
fill="crimson" stroke="none">
<path d="M0 5120 l0 -5120 5120 0 5120 0 0 5120 0 5120 -5120 0 -5120 0 0
-5120z m8185 415 c380 -71 648 -254 909 -619 31 -43 56 -84 56 -92 0 -18 -71
-70 -342 -249 -322 -213 -371 -243 -385 -238 -6 3 -43 47 -82 98 -119 158
-194 219 -326 261 -109 36 -288 38 -379 5 -124 -44 -196 -107 -244 -210 -24
-50 -27 -68 -27 -171 0 -109 2 -118 32 -183 22 -46 52 -88 91 -125 96 -93 186
-141 687 -361 209 -93 501 -247 634 -335 205 -137 351 -279 445 -435 131 -216
196 -502 182 -796 -6 -146 -16 -210 -52 -339 -128 -458 -554 -794 -1139 -897
-214 -38 -583 -35 -825 7 -407 70 -840 308 -1063 584 -85 105 -227 318 -227
341 0 9 6 21 13 27 11 9 167 100 580 339 71 40 139 81 152 89 22 15 24 13 62
-41 66 -97 91 -127 191 -228 53 -55 129 -120 168 -147 232 -155 609 -194 872
-89 126 50 223 132 269 228 23 48 28 72 31 166 5 130 -12 190 -75 276 -87 118
-230 197 -854 473 -235 104 -455 227 -596 332 -275 205 -477 529 -514 821 -16
129 -17 440 -1 523 29 151 105 332 193 461 64 95 200 231 298 298 153 105 293
166 486 215 142 35 133 34 425 31 196 -2 288 -7 355 -20z m-2321 -41 c3 -9 6
-200 6 -425 l0 -409 -665 0 -665 0 -2 -1892 -3 -1893 -470 0 -470 0 -3 1893
-2 1892 -665 0 -665 0 0 409 c0 225 3 416 6 425 6 15 173 16 1799 16 1626 0
1793 -1 1799 -16z"/>
</g>
</svg>
